<svg width="14" height="19" viewBox="0 0 14 19" fill="none" xmlns="http://www.w3.org/2000/svg">
<path fill-rule="evenodd" clip-rule="evenodd" d="M7.59 18.32C9.277 16.867 14 12.365 14 7.5C14 5.64348 13.2625 3.86301 11.9497 2.55025C10.637 1.2375 8.85652 0.5 7 0.5C5.14348 0.5 3.36301 1.2375 2.05025 2.55025C0.737498 3.86301 0 5.64348 0 7.5C0 12.365 4.723 16.867 6.41 18.32C6.57324 18.4631 6.78292 18.542 7 18.542C7.21708 18.542 7.42676 18.4631 7.59 18.32ZM7 9.5C7.53043 9.5 8.03914 9.28929 8.41421 8.91421C8.78929 8.53914 9 8.03043 9 7.5C9 6.96957 8.78929 6.46086 8.41421 6.08579C8.03914 5.71071 7.53043 5.5 7 5.5C6.46957 5.5 5.96086 5.71071 5.58579 6.08579C5.21071 6.46086 5 6.96957 5 7.5C5 8.03043 5.21071 8.53914 5.58579 8.91421C5.96086 9.28929 6.46957 9.5 7 9.5Z" fill="black"/>
</svg>
